# xmcd CD database file
#
# Track frame offsets:
#	150
#	15871
#	28543
#	48183
#	67669
#	80464
#	94280
#	116996
#	133132
#	151965
#	176975
#	189420
#	211128
#	228715
#	251309
#
# Disc length: 3651 seconds
#
# Revision: 3
# Processed by: cddbd v1.4PL0 Copyright (c) Steve Scherf et al.
# Submitted via: CDex 1.50Beta7
#
DISCID=bf0e410f
DTITLE=Various Artist - [Now Jazz CD1]
DYEAR=1900
DGENRE=Jazz
TTITLE0=TRISTEZA-Astrud Gilberto
TTITLE1=I Left My Heart In San Francisco-Julie London
TTITLE2=Lately-George Benson
TTITLE3=Bossa Baroque-Dave Grusin
TTITLE4=Somethin' Stupid-Robby Williams and Nicole Kidmann
TTITLE5=Don't Know Why-Norah Jones
TTITLE6=Cry Me A River-Diana Krall
TTITLE7=Pretty World-Lisa Ono
TTITLE8=DESAFINADO(OFF KEY)-Stan Getz and Joao Gilberto
TTITLE9=Our Spanish Love Song-Gonzalo Rubalcaba
TTITLE10=Let There Be Love-Laura Fygi
TTITLE11=Don't Worry, Be Happy-Bobby Mcferrin
TTITLE12=Be Still My Heart-Silje Nergaard
TTITLE13=The Key To You-David Benoit
TTITLE14=Changed The World-Gerald Albright
EXTD=
EXTT0=
EXTT1=
EXTT2=
EXTT3=
EXTT4=
EXTT5=
EXTT6=
EXTT7=
EXTT8=
EXTT9=
EXTT10=
EXTT11=
EXTT12=
EXTT13=
EXTT14=
PLAYORDER=
